{
    "accessors" : [
        {
            "bufferView" : 0,
            "componentType" : 5121,
            "count" : 60,
            "max" : [
                39
            ],
            "min" : [
                0
            ],
            "type" : "SCALAR"
        },
        {
            "bufferView" : 1,
            "componentType" : 5126,
            "count" : 40,
            "max" : [
                1.1772990226745605,
                3.2783350944519043,
                1.0
            ],
            "min" : [
                -1.0000001192092896,
                -1.0,
                -1.1022696495056152
            ],
            "type" : "VEC3"
        },
        {
            "bufferView" : 2,
            "componentType" : 5126,
            "count" : 40,
            "max" : [
                0.9991425275802612,
                0.9999999403953552,
                0.9997144937515259
            ],
            "min" : [
                -0.998081624507904,
                -1.0,
                -0.9997144937515259
            ],
            "type" : "VEC3"
        },
        {
            "bufferView" : 3,
            "componentType" : 5123,
            "count" : 40,
            "max" : [
                2,
                2,
                0,
                0
            ],
            "min" : [
                2,
                0,
                0,
                0
            ],
            "type" : "VEC4"
        },
        {
            "bufferView" : 4,
            "componentType" : 5126,
            "count" : 40,
            "max" : [
                0.9878818988800049,
                0.16627620160579681,
                0.0,
                0.0
            ],
            "min" : [
                0.833723783493042,
                0.0,
                0.0,
                0.0
            ],
            "type" : "VEC4"
        },
        {
            "bufferView" : 5,
            "componentType" : 5121,
            "count" : 60,
            "max" : [
                39
            ],
            "min" : [
                0
            ],
            "type" : "SCALAR"
        },
        {
            "bufferView" : 6,
            "componentType" : 5126,
            "count" : 40,
            "max" : [
                1.1772990226745605,
                3.2783350944519043,
                1.0
            ],
            "min" : [
                -1.0000001192092896,
                -1.0,
                -1.1022696495056152
            ],
            "type" : "VEC3"
        },
        {
            "bufferView" : 7,
            "componentType" : 5126,
            "count" : 40,
            "max" : [
                0.9991425275802612,
                0.9999999403953552,
                0.9997144937515259
            ],
            "min" : [
                -0.998081624507904,
                -1.0,
                -0.9997144937515259
            ],
            "type" : "VEC3"
        },
        {
            "bufferView" : 8,
            "componentType" : 5123,
            "count" : 40,
            "max" : [
                2,
                2,
                0,
                0
            ],
            "min" : [
                2,
                0,
                0,
                0
            ],
            "type" : "VEC4"
        },
        {
            "bufferView" : 9,
            "componentType" : 5126,
            "count" : 40,
            "max" : [
                0.9878818988800049,
                0.16627620160579681,
                0.0,
                0.0
            ],
            "min" : [
                0.833723783493042,
                0.0,
                0.0,
                0.0
            ],
            "type" : "VEC4"
        },
        {
            "bufferView" : 10,
            "componentType" : 5126,
            "count" : 2,
            "max" : [
                1.0,
                0.0,
                0.012696193531155586,
                0.0,
                0.012696197256445885,
                1.0,
                0.11679837107658386,
                0.0,
                0.0,
                0.0,
                1.0,
                0.0,
                0.0,
                0.0,
                0.0,
                1.0
            ],
            "min" : [
                0.999817430973053,
                -0.014275641180574894,
                0.0,
                0.0,
                0.0,
                0.9930744767189026,
                0.0,
                0.0,
                -0.01427563838660717,
                -0.11661586165428162,
                0.9930744171142578,
                0.0,
                -0.012696197256445885,
                -0.9930744767189026,
                -0.11679837107658386,
                1.0
            ],
            "type" : "MAT4"
        },
        {
            "bufferView" : 11,
            "componentType" : 5126,
            "count" : 2,
            "max" : [
                1.0,
                0.0,
                0.012696193531155586,
                0.0,
                0.012696197256445885,
                1.0,
                0.11679837107658386,
                0.0,
                0.0,
                0.0,
                1.0,
                0.0,
                5.376115798950195,
                -0.4521940052509308,
                -6.688452243804932,
                1.0
            ],
            "min" : [
                0.999817430973053,
                -0.014275641180574894,
                0.0,
                0.0,
                0.0,
                0.9930744767189026,
                0.0,
                0.0,
                -0.01427563838660717,
                -0.11661586165428162,
                0.9930744171142578,
                0.0,
                5.300038814544678,
                -0.7378185987472534,
                -6.744454383850098,
                1.0
            ],
            "type" : "MAT4"
        },
        {
            "bufferView" : 12,
            "componentType" : 5126,
            "count" : 2,
            "max" : [
                1.0,
                0.0,
                0.012696193531155586,
                0.0,
                0.012696197256445885,
                1.0,
                0.11679837107658386,
                0.0,
                0.0,
                0.0,
                1.0,
                0.0,
                0.0,
                0.0,
                0.0,
                1.0
            ],
            "min" : [
                0.999817430973053,
                -0.014275641180574894,
                0.0,
                0.0,
                0.0,
                0.9930744767189026,
                0.0,
                0.0,
                -0.01427563838660717,
                -0.11661586165428162,
                0.9930744171142578,
                0.0,
                -0.012696197256445885,
                -0.9930744767189026,
                -0.11679837107658386,
                1.0
            ],
            "type" : "MAT4"
        },
        {
            "bufferView" : 13,
            "componentType" : 5126,
            "count" : 2,
            "max" : [
                1.0,
                0.0,
                0.012696193531155586,
                0.0,
                0.012696197256445885,
                1.0,
                0.11679837107658386,
                0.0,
                0.0,
                0.0,
                1.0,
                0.0,
                -5.300038814544678,
                0.4521940052509308,
                6.688452243804932,
                1.0
            ],
            "min" : [
                0.999817430973053,
                -0.014275641180574894,
                0.0,
                0.0,
                0.0,
                0.9930744767189026,
                0.0,
                0.0,
                -0.01427563838660717,
                -0.11661586165428162,
                0.9930744171142578,
                0.0,
                -5.401508331298828,
                -1.2483303546905518,
                6.510857582092285,
                1.0
            ],
            "type" : "MAT4"
        },
        {
            "bufferView" : 14,
            "componentType" : 5126,
            "count" : 1,
            "max" : [
                0.08333333333333334
            ],
            "min" : [
                0.08333333333333334
            ],
            "type" : "SCALAR"
        },
        {
            "bufferView" : 15,
            "componentType" : 5126,
            "count" : 1,
            "max" : [
                0.0,
                0.0,
                0.0,
                1.0
            ],
            "min" : [
                0.0,
                0.0,
                0.0,
                1.0
            ],
            "type" : "VEC4"
        },
        {
            "bufferView" : 16,
            "componentType" : 5126,
            "count" : 35,
            "max" : [
                1.5
            ],
            "min" : [
                0.08333333333333334
            ],
            "type" : "SCALAR"
        },
        {
            "bufferView" : 17,
            "componentType" : 5126,
            "count" : 35,
            "max" : [
                0.08182337135076523,
                0.18270936608314514,
                0.5522223114967346,
                0.9982544779777527
            ],
            "min" : [
                -0.058456193655729294,
                0.006754818372428417,
                0.006754819303750992,
                0.809303879737854
            ],
            "type" : "VEC4"
        },
        {
            "bufferView" : 18,
            "componentType" : 5126,
            "count" : 1,
            "max" : [
                0.08333333333333334
            ],
            "min" : [
                0.08333333333333334
            ],
            "type" : "SCALAR"
        },
        {
            "bufferView" : 19,
            "componentType" : 5126,
            "count" : 1,
            "max" : [
                0.0,
                0.0,
                0.0,
                1.0
            ],
            "min" : [
                0.0,
                0.0,
                0.0,
                1.0
            ],
            "type" : "VEC4"
        },
        {
            "bufferView" : 20,
            "componentType" : 5126,
            "count" : 35,
            "max" : [
                1.5
            ],
            "min" : [
                0.08333333333333334
            ],
            "type" : "SCALAR"
        },
        {
            "bufferView" : 21,
            "componentType" : 5126,
            "count" : 35,
            "max" : [
                0.08182337135076523,
                0.18270936608314514,
                0.5522223114967346,
                0.9982544779777527
            ],
            "min" : [
                -0.058456193655729294,
                0.006754818372428417,
                0.006754819303750992,
                0.809303879737854
            ],
            "type" : "VEC4"
        }
    ],
    "animations" : [
        {
            "channels" : [
                {
                    "sampler" : 0,
                    "target" : {
                        "node" : 5,
                        "path" : "rotation"
                    }
                },
                {
                    "sampler" : 1,
                    "target" : {
                        "node" : 6,
                        "path" : "rotation"
                    }
                },
                {
                    "sampler" : 2,
                    "target" : {
                        "node" : 7,
                        "path" : "rotation"
                    }
                },
                {
                    "sampler" : 3,
                    "target" : {
                        "node" : 8,
                        "path" : "rotation"
                    }
                }
            ],
            "samplers" : [
                {
                    "input" : 14,
                    "interpolation" : "LINEAR",
                    "output" : 15
                },
                {
                    "input" : 16,
                    "interpolation" : "LINEAR",
                    "output" : 17
                },
                {
                    "input" : 18,
                    "interpolation" : "LINEAR",
                    "output" : 19
                },
                {
                    "input" : 20,
                    "interpolation" : "LINEAR",
                    "output" : 21
                }
            ]
        }
    ],
    "asset" : {
        "generator" : "Khronos Blender glTF 2.0 exporter",
        "version" : "2.0"
    },
    "bufferViews" : [
        {
            "buffer" : 0,
            "byteLength" : 60,
            "byteOffset" : 0,
            "target" : 34963
        },
        {
            "buffer" : 0,
            "byteLength" : 480,
            "byteOffset" : 60,
            "target" : 34962
        },
        {
            "buffer" : 0,
            "byteLength" : 480,
            "byteOffset" : 540,
            "target" : 34962
        },
        {
            "buffer" : 0,
            "byteLength" : 320,
            "byteOffset" : 1020,
            "target" : 34962
        },
        {
            "buffer" : 0,
            "byteLength" : 640,
            "byteOffset" : 1340,
            "target" : 34962
        },
        {
            "buffer" : 0,
            "byteLength" : 60,
            "byteOffset" : 1980,
            "target" : 34963
        },
        {
            "buffer" : 0,
            "byteLength" : 480,
            "byteOffset" : 2040,
            "target" : 34962
        },
        {
            "buffer" : 0,
            "byteLength" : 480,
            "byteOffset" : 2520,
            "target" : 34962
        },
        {
            "buffer" : 0,
            "byteLength" : 320,
            "byteOffset" : 3000,
            "target" : 34962
        },
        {
            "buffer" : 0,
            "byteLength" : 640,
            "byteOffset" : 3320,
            "target" : 34962
        },
        {
            "buffer" : 0,
            "byteLength" : 128,
            "byteOffset" : 3960
        },
        {
            "buffer" : 0,
            "byteLength" : 128,
            "byteOffset" : 4088
        },
        {
            "buffer" : 0,
            "byteLength" : 128,
            "byteOffset" : 4216
        },
        {
            "buffer" : 0,
            "byteLength" : 128,
            "byteOffset" : 4344
        },
        {
            "buffer" : 0,
            "byteLength" : 4,
            "byteOffset" : 4472
        },
        {
            "buffer" : 0,
            "byteLength" : 16,
            "byteOffset" : 4476
        },
        {
            "buffer" : 0,
            "byteLength" : 140,
            "byteOffset" : 4492
        },
        {
            "buffer" : 0,
            "byteLength" : 560,
            "byteOffset" : 4632
        },
        {
            "buffer" : 0,
            "byteLength" : 4,
            "byteOffset" : 5192
        },
        {
            "buffer" : 0,
            "byteLength" : 16,
            "byteOffset" : 5196
        },
        {
            "buffer" : 0,
            "byteLength" : 140,
            "byteOffset" : 5212
        },
        {
            "buffer" : 0,
            "byteLength" : 560,
            "byteOffset" : 5352
        }
    ],
    "buffers" : [
        {
            "byteLength" : 5912,
            "uri" : "Cube.bin"
        }
    ],
    "materials" : [
        {
            "name" : "Material",
            "pbrMetallicRoughness" : {
                "baseColorFactor" : [
                    0.6400000190734865,
                    0.6400000190734865,
                    0.6400000190734865,
                    1.0
                ],
                "metallicFactor" : 0.0
            }
        }
    ],
    "meshes" : [
        {
            "name" : "Cube",
            "primitives" : [
                {
                    "attributes" : {
                        "JOINTS_0" : 3,
                        "NORMAL" : 2,
                        "POSITION" : 1,
                        "WEIGHTS_0" : 4
                    },
                    "indices" : 0,
                    "material" : 0
                }
            ]
        },
        {
            "name" : "Cube.001",
            "primitives" : [
                {
                    "attributes" : {
                        "JOINTS_0" : 8,
                        "NORMAL" : 7,
                        "POSITION" : 6,
                        "WEIGHTS_0" : 9
                    },
                    "indices" : 5,
                    "material" : 0
                }
            ]
        }
    ],
    "nodes" : [
        {
            "children" : [
                3,
                5
            ],
            "name" : "Armature"
        },
        {
            "children" : [
                4,
                7
            ],
            "name" : "Armature.001",
            "translation" : [
                5.300038814544678,
                -0.4521940052509308,
                -6.688452243804932
            ]
        },
        {
            "name" : "Camera",
            "rotation" : [
                0.483536034822464,
                0.33687159419059753,
                -0.20870360732078552,
                0.7804827094078064
            ],
            "translation" : [
                7.481131553649902,
                5.34366512298584,
                6.5076398849487305
            ]
        },
        {
            "mesh" : 0,
            "name" : "Cube",
            "skin" : 0
        },
        {
            "mesh" : 1,
            "name" : "Cube.001",
            "rotation" : [
                0.0,
                2.4916424479215493e-08,
                -3.547198756947978e-09,
                1.0
            ],
            "scale" : [
                1.0000001192092896,
                1.0,
                1.0
            ],
            "skin" : 2,
            "translation" : [
                0.0,
                -5.960464477539063e-08,
                -0.0
            ]
        },
        {
            "children" : [
                6
            ],
            "name" : "Armature_Bone"
        },
        {
            "name" : "Armature_Bone.001",
            "rotation" : [
                -0.058456193655729294,
                0.006754818372428417,
                0.006754819303750992,
                0.9982442855834961
            ],
            "translation" : [
                0.0,
                1.0,
                0.0
            ]
        },
        {
            "children" : [
                8
            ],
            "name" : "Armature.001_Bone"
        },
        {
            "name" : "Armature.001_Bone.001",
            "rotation" : [
                -0.058456193655729294,
                0.006754818372428417,
                0.006754819303750992,
                0.9982442855834961
            ],
            "translation" : [
                0.0,
                1.0,
                0.0
            ]
        }
    ],
    "scene" : 0,
    "scenes" : [
        {
            "name" : "Scene",
            "nodes" : [
                1,
                0,
                2
            ]
        }
    ],
    "skins" : [
        {
            "inverseBindMatrices" : 10,
            "joints" : [
                5,
                6
            ],
            "skeleton" : 0
        },
        {
            "inverseBindMatrices" : 11,
            "joints" : [
                5,
                6
            ],
            "skeleton" : 0
        },
        {
            "inverseBindMatrices" : 12,
            "joints" : [
                7,
                8
            ],
            "skeleton" : 1
        },
        {
            "inverseBindMatrices" : 13,
            "joints" : [
                7,
                8
            ],
            "skeleton" : 1
        }
    ]
}
